<mxfile host="65bd71144e">
    <diagram id="0q0uDB8cmmE78NBs5yt0" name="Page-1">
        <mxGraphModel dx="1046" dy="515" grid="1" gridSize="10" guides="1" tooltips="1" connect="1" arrows="1" fold="1" page="1" pageScale="1" pageWidth="827" pageHeight="1169" math="0" shadow="0">
            <root>
                <mxCell id="0"/>
                <mxCell id="1" parent="0"/>
                <mxCell id="7" value="&lt;font style=&quot;font-size: 32px&quot;&gt;Ingress&lt;/font&gt;" style="rounded=1;whiteSpace=wrap;html=1;fillColor=#1ba1e2;strokeColor=#006EAF;fontColor=#ffffff;" parent="1" vertex="1">
                    <mxGeometry x="80" y="50" width="120" height="60" as="geometry"/>
                </mxCell>
                <mxCell id="8" value="&lt;font style=&quot;font-size: 16px&quot; color=&quot;#ffffff&quot;&gt;SERVICE&lt;/font&gt;" style="points=[[0,0,0],[0.25,0,0],[0.5,0,0],[0.75,0,0],[1,0,0],[0,1,0],[0.25,1,0],[0.5,1,0],[0.75,1,0],[1,1,0],[0,0.25,0],[0,0.5,0],[0,0.75,0],[1,0.25,0],[1,0.5,0],[1,0.75,0]];outlineConnect=0;fontColor=#232F3E;gradientColor=#F78E04;gradientDirection=north;fillColor=#D05C17;strokeColor=#ffffff;dashed=0;verticalLabelPosition=bottom;verticalAlign=top;align=center;html=1;fontSize=12;fontStyle=0;aspect=fixed;shape=mxgraph.aws4.resourceIcon;resIcon=mxgraph.aws4.eks;" parent="1" vertex="1">
                    <mxGeometry x="80" y="170" width="120" height="120" as="geometry"/>
                </mxCell>
                <object label="" data-keyframe-id="3" data-motion-id="pod1" motion-id="pod1" keyframe-id="3" id="13">
                    <mxCell style="html=1;dashed=0;whitespace=wrap;fillColor=#2875E2;strokeColor=#ffffff;points=[[0.005,0.63,0],[0.1,0.2,0],[0.9,0.2,0],[0.5,0,0],[0.995,0.63,0],[0.72,0.99,0],[0.5,1,0],[0.28,0.99,0]];shape=mxgraph.kubernetes.icon;prIcon=pod" parent="1" vertex="1">
                        <mxGeometry x="100" y="50" width="80" height="60" as="geometry"/>
                    </mxCell>
                </object>
                <object label="" data-keyframe-id="3" data-motion-id="pod2" keyframe-id="3" motion-id="pod2" id="14">
                    <mxCell style="html=1;dashed=0;whitespace=wrap;fillColor=#2875E2;strokeColor=#ffffff;points=[[0.005,0.63,0],[0.1,0.2,0],[0.9,0.2,0],[0.5,0,0],[0.995,0.63,0],[0.72,0.99,0],[0.5,1,0],[0.28,0.99,0]];shape=mxgraph.kubernetes.icon;prIcon=pod" parent="1" vertex="1">
                        <mxGeometry x="100" y="190" width="80" height="98" as="geometry"/>
                    </mxCell>
                </object>
                <mxCell id="9" style="edgeStyle=none;html=1;entryX=0.5;entryY=0;entryDx=0;entryDy=0;entryPerimeter=0;" parent="1" source="7" target="8" edge="1">
                    <mxGeometry relative="1" as="geometry"/>
                </mxCell>
                <object label="" keyframe-id="1" motion-id="pod1" id="17">
                    <mxCell style="html=1;dashed=0;whitespace=wrap;fillColor=#2875E2;strokeColor=#ffffff;points=[[0.005,0.63,0],[0.1,0.2,0],[0.9,0.2,0],[0.5,0,0],[0.995,0.63,0],[0.72,0.99,0],[0.5,1,0],[0.28,0.99,0]];shape=mxgraph.kubernetes.icon;prIcon=pod" parent="1" vertex="1">
                        <mxGeometry x="90" y="360" width="120" height="138" as="geometry"/>
                    </mxCell>
                </object>
                <object label="&lt;font color=&quot;#ffffff&quot; style=&quot;background-color: rgb(0 , 0 , 0)&quot;&gt;10.0.0.1&lt;/font&gt;" keyframe-id="1" motion-id="pod1-label" id="18">
                    <mxCell style="text;html=1;strokeColor=none;align=center;verticalAlign=middle;whiteSpace=wrap;rounded=0;fillColor=#000000;" parent="1" vertex="1">
                        <mxGeometry x="120" y="498" width="40" height="20" as="geometry"/>
                    </mxCell>
                </object>
                <object label="" keyframe-id="2" motion-id="pod1" id="27">
                    <mxCell style="html=1;dashed=0;whitespace=wrap;fillColor=#2875E2;strokeColor=#ffffff;points=[[0.005,0.63,0],[0.1,0.2,0],[0.9,0.2,0],[0.5,0,0],[0.995,0.63,0],[0.72,0.99,0],[0.5,1,0],[0.28,0.99,0]];shape=mxgraph.kubernetes.icon;prIcon=pod" parent="1" vertex="1">
                        <mxGeometry x="540" y="60" width="120" height="138" as="geometry"/>
                    </mxCell>
                </object>
                <object label="&lt;font color=&quot;#ffffff&quot; style=&quot;background-color: rgb(0 , 0 , 0)&quot;&gt;10.0.0.1&lt;/font&gt;" keyframe-id="2" motion-id="pod1-label" id="28">
                    <mxCell style="text;html=1;strokeColor=none;align=center;verticalAlign=middle;whiteSpace=wrap;rounded=0;fillColor=#000000;" parent="1" vertex="1">
                        <mxGeometry x="570" y="198" width="40" height="20" as="geometry"/>
                    </mxCell>
                </object>
                <object label="&lt;h1&gt;Heading3&lt;/h1&gt;&lt;p&gt;&lt;font style=&quot;font-size: 16px&quot;&gt;Lorem ipsum dolor sit amet, consectetur adipisicing elit, sed do eiusmod tempor incididunt ut labore et dolore magna aliqua.&lt;/font&gt;&lt;/p&gt;" keyframe-id="1" motion-id="note1" id="29">
                    <mxCell style="text;html=1;strokeColor=none;spacing=5;spacingTop=-20;whiteSpace=wrap;overflow=hidden;rounded=0;fillColor=#000000;opacity=0;" parent="1" vertex="1">
                        <mxGeometry x="260" y="250" width="260" height="140" as="geometry"/>
                    </mxCell>
                </object>
                <object label="LONDON" keyframe-id="1" motion-id="london1" id="65">
                    <mxCell style="rounded=0;whiteSpace=wrap;html=1;fillColor=#1ba1e2;strokeColor=#006EAF;fontColor=#ffffff;" parent="1" vertex="1">
                        <mxGeometry x="300" y="490" width="120" height="60" as="geometry"/>
                    </mxCell>
                </object>
                <object label="I Am Devil" keyframe-id="1" motion-id="devil1" id="67">
                    <mxCell style="ellipse;whiteSpace=wrap;html=1;fillColor=#000000;gradientColor=none;" parent="1" vertex="1">
                        <mxGeometry x="300" y="600" width="120" height="80" as="geometry"/>
                    </mxCell>
                </object>
                <object label="I Am Devil" keyframe-id="2" motion-id="devil1" id="68">
                    <mxCell style="ellipse;whiteSpace=wrap;html=1;fillColor=#000000;gradientColor=none;" parent="1" vertex="1">
                        <mxGeometry x="510" y="600" width="190" height="120" as="geometry"/>
                    </mxCell>
                </object>
                <object label="LONDON" keyframe-id="2" motion-id="london1" id="69">
                    <mxCell style="rounded=0;whiteSpace=wrap;html=1;fillColor=#1ba1e2;strokeColor=#006EAF;fontColor=#ffffff;" parent="1" vertex="1">
                        <mxGeometry x="580" y="410" width="180" height="108" as="geometry"/>
                    </mxCell>
                </object>
                <object label="&lt;h1&gt;Heading3&lt;/h1&gt;&lt;p&gt;&lt;font style=&quot;font-size: 16px&quot;&gt;Lorem ipsum dolor sit amet, consectetur adipisicing elit, sed do eiusmod tempor incididunt ut labore et dolore magna aliqua.&lt;/font&gt;&lt;/p&gt;" keyframe-id="2" motion-id="note1" id="70">
                    <mxCell style="text;html=1;strokeColor=none;spacing=5;spacingTop=-20;whiteSpace=wrap;overflow=hidden;rounded=0;fillColor=#000000;opacity=0;" vertex="1" parent="1">
                        <mxGeometry x="540" y="240" width="260" height="140" as="geometry"/>
                    </mxCell>
                </object>
            </root>
        </mxGraphModel>
    </diagram>
</mxfile>